<svg xmlns="http://www.w3.org/2000/svg" width="300" height="119.042" viewBox="0 0 300 119.042"><defs><style>.a{fill:#1a1818;}</style></defs><g transform="translate(0)"><path class="a" d="M387.714,327.308q2.808,1.325,1.326,3.634-4.79,6.932-7.43,9.244-6.605,5.288-17.5,5.284-14.035,0-24.023-10.978a40.145,40.145,0,0,1,0-53q9.988-10.979,24.023-10.98a26.33,26.33,0,0,1,15.19,4.623,20.263,20.263,0,0,1,7.265,7.43q1.32,2.477-1.326,3.8c-.444.221-.94.5-1.491.825q-.666,0-1.658-1.486-7.789-10.9-17.9-10.9-9.612,0-16.407,9.659t-6.793,23.526q0,13.708,6.793,23.365t16.4,9.657q8.279,0,13.585-4.456,2.816-2.313,6.294-8.255A2.5,2.5,0,0,1,387.714,327.308Z" transform="translate(-330.096 -226.428)"/><path class="a" d="M386.993,279.737v61.09a2.481,2.481,0,0,1-2.807,2.807H378.9a2.48,2.48,0,0,1-2.807-2.807V274.619a2.481,2.481,0,0,1,2.807-2.807h22.125a25.607,25.607,0,0,1,16.841,6.026,18.676,18.676,0,0,1,7.265,14.942q0,6.439-6.136,11.391a21.237,21.237,0,0,1-11.444,4.79q-2.813.168-1.326,2.364l19.557,30a2.793,2.793,0,0,1,.5,1.319c0,.662-.718.989-2.146.989H417.7q-2.643,0-3.632-1.488Q403.008,325.8,391.781,308.3a4.361,4.361,0,0,1-.826-1.981q0-.988,3.3-.826,19.647.83,19.648-14.53a13.792,13.792,0,0,0-4.54-10.4,15.206,15.206,0,0,0-10.815-4.293h-8.09Q386.993,276.27,386.993,279.737Z" transform="translate(-300.146 -225.581)"/><path class="a" d="M454.233,324.607H431.09a3.5,3.5,0,0,0-3.637,2.805q-2.013,6.434-4.361,13.519-.978,3.158-3.1,3.159-3.44,0-2.282-3.632l19.483-62.907q1.981-6.439,7.76-6.439,5.28,0,6.935,4.458,8.086,22.456,23.607,64.393a3.63,3.63,0,0,1,0,2.64,2.177,2.177,0,0,1-2.325,1.488h-5.31a4.4,4.4,0,0,1-4.481-3.114L458.7,327.233Q457.869,324.61,454.233,324.607Zm-22.092-4.953h21.671q2.15,0,1.324-2.127-3.8-11.063-10.722-29.725-.986-2.987-2.463-2.987t-2.3,2.637q-2.833,8.908-8.833,28.537Q429.663,319.656,432.142,319.654Z" transform="translate(-273.241 -226.037)"/><path class="a" d="M472.692,359.058a2.481,2.481,0,0,1-2.807,2.807H464.6a2.479,2.479,0,0,1-2.807-2.807V269.9q0-26.086,19.483-26.087,5.449,0,7.1.826,2.477.991,2.477,1.981a3.816,3.816,0,0,1-.33,1.321q-.5,1.322-3.3.66a19.749,19.749,0,0,0-5.614-.5q-3.8,0-6.357,3.8a17.083,17.083,0,0,0-2.559,9.741v24.931q0,3.467,3.1,3.467,4.24,0,6.2.165h2.448q2.608,0,2.61,2.726,0,2.558-2.939,2.558h-6.854q-4.575,0-4.572,4.458Z" transform="translate(-244.348 -243.812)"/><path class="a" d="M502.1,279.572a2.189,2.189,0,0,0-2.477-2.477h-14.53q-3.8,0-3.8-1.981v-1.321q0-1.981,4.788-1.981h40.947q4.621,0,4.623,1.981v1.321q0,1.981-3.632,1.981H517.453a20.325,20.325,0,0,0-3.632.165A2.07,2.07,0,0,0,512,279.572v61.419A2.48,2.48,0,0,1,509.2,343.8H504.9a2.479,2.479,0,0,1-2.807-2.807Z" transform="translate(-231.652 -225.581)"/></g></svg>