<svg xmlns="http://www.w3.org/2000/svg" width="24.944" height="19" viewBox="0 0 24.944 19"><defs><style>.a{fill:#8f8f8f;}</style></defs><g transform="translate(0 -61)"><g transform="translate(0 61)"><path class="a" d="M22.751,61H2.192A2.2,2.2,0,0,0,0,63.192V77.808A2.2,2.2,0,0,0,2.192,80H22.751a2.2,2.2,0,0,0,2.192-2.192V63.192A2.2,2.2,0,0,0,22.751,61Zm-.3,1.462-9.93,9.93L2.5,62.462ZM1.462,77.505V63.488L8.5,70.466Zm1.033,1.033L9.538,71.5l2.468,2.447a.731.731,0,0,0,1.031,0l2.406-2.406,7.005,7.005Zm20.987-1.033L16.477,70.5l7.005-7.005Z" transform="translate(0 -61)"/></g></g></svg>