<svg xmlns="http://www.w3.org/2000/svg" width="300" height="174.23" viewBox="0 0 300 174.23"><defs><style>.a{fill:#fff;}</style></defs><g transform="translate(-330.096 -243.812)"><g transform="translate(422.26 396.375)"><path class="a" d="M400.134,342.029v-1.74h4.646l.259,2.153a5.188,5.188,0,0,1,1.555-1.783,3.622,3.622,0,0,1,2.118-.644,4.686,4.686,0,0,1,.65.048,3.787,3.787,0,0,1,.515.1l-.357,2.508-1.535-.081a3.085,3.085,0,0,0-1.795.5,3.239,3.239,0,0,0-1.124,1.405v8.511l2.234.385v1.725h-7.167v-1.725l2.234-.385V342.412Z" transform="translate(-376.659 -333.738)"/><path class="a" d="M391.563,341.921l-1.7.3,1.932,7.387.315,1.795h.083l.383-1.795,2.96-9.429H397.7l2.974,9.429.424,2h.083l.4-2,1.823-7.387-1.727-.3v-1.74h5.647v1.74l-1.289.193-3.741,12.9h-2.178l-2.879-9.031-.616-2.493-.083.013-.576,2.48-2.823,9.031H390.96l-3.741-12.9-1.3-.193v-1.74h5.647Z" transform="translate(-385.916 -333.629)"/><path class="a" d="M406.973,347.565a8.162,8.162,0,0,1,1.782-5.419,6.589,6.589,0,0,1,9.7-.008,8.144,8.144,0,0,1,1.788,5.427v.3a8.13,8.13,0,0,1-1.782,5.427,6.627,6.627,0,0,1-9.7-.008,8.128,8.128,0,0,1-1.782-5.419Zm2.7.3a7.039,7.039,0,0,0,.994,3.892,3.576,3.576,0,0,0,5.873,0,7,7,0,0,0,1-3.892v-.3a7.007,7.007,0,0,0-1-3.877,3.288,3.288,0,0,0-2.947-1.55,3.253,3.253,0,0,0-2.932,1.55,7.074,7.074,0,0,0-.987,3.877Z" transform="translate(-372.206 -333.738)"/><path class="a" d="M423.089,353.3a3.638,3.638,0,0,0,2.364-.831,2.526,2.526,0,0,0,1.022-2.034H428.9l.026.081a4.156,4.156,0,0,1-1.705,3.406,6.245,6.245,0,0,1-4.133,1.486,5.981,5.981,0,0,1-4.94-2.108,8.171,8.171,0,0,1-1.707-5.3v-.576a8.131,8.131,0,0,1,1.714-5.284,5.983,5.983,0,0,1,4.933-2.117,8.29,8.29,0,0,1,3.2.588,6.45,6.45,0,0,1,2.351,1.62l.124,3.289h-2.151l-.589-2.331a3.578,3.578,0,0,0-1.233-.753,4.75,4.75,0,0,0-1.7-.289,3.252,3.252,0,0,0-3.035,1.529,7.2,7.2,0,0,0-.911,3.748v.576a7.267,7.267,0,0,0,.9,3.789A3.259,3.259,0,0,0,423.089,353.3Z" transform="translate(-366.041 -333.738)"/><path class="a" d="M430.273,345.629l2.042-.781v2.262l-2.042.781v7.592l2.234.385v1.725H425.34v-1.725l2.234-.385V348.92l-1.973.753v-2.264l1.973-.753v-8.318l-2.234-.383v-1.742h4.933Z" transform="translate(-360.247 -336.213)"/><path class="a" d="M440.446,355.117c-.083-.4-.147-.761-.192-1.083s-.078-.639-.1-.958a6.576,6.576,0,0,1-1.952,1.664,5.6,5.6,0,0,1-6.025-.466,4.16,4.16,0,0,1-1.205-3.187,3.693,3.693,0,0,1,1.706-3.256,8.32,8.32,0,0,1,4.681-1.144h2.782v-1.725a2.677,2.677,0,0,0-.822-2.064,3.244,3.244,0,0,0-2.289-.761,5.6,5.6,0,0,0-1.788.261,3.372,3.372,0,0,0-1.255.713l-.287,1.562h-2.084V341.8a8.023,8.023,0,0,1,2.454-1.294,9.719,9.719,0,0,1,3.124-.487,6.214,6.214,0,0,1,4.085,1.288,4.509,4.509,0,0,1,1.562,3.687v7.141c0,.192,0,.378.007.563s.017.363.035.548l1.1.15v1.725Zm-4.346-1.973a4.8,4.8,0,0,0,2.453-.644,4,4,0,0,0,1.59-1.549v-2.44h-2.878a4.11,4.11,0,0,0-2.623.768,2.307,2.307,0,0,0-.968,1.864,1.848,1.848,0,0,0,.6,1.488A2.754,2.754,0,0,0,436.1,353.145Z" transform="translate(-356.578 -333.738)"/><path class="a" d="M445.56,341.921l-1.7.3,1.932,7.387.315,1.795h.083l.385-1.795,2.959-9.429H451.7l2.974,9.429.426,2h.081l.4-2,1.823-7.387-1.727-.3v-1.74h5.647v1.74l-1.288.193-3.741,12.9h-2.18l-2.878-9.031-.618-2.493-.082.013-.575,2.48-2.823,9.031h-2.179l-3.741-12.9-1.3-.193v-1.74h5.647Z" transform="translate(-350.759 -333.629)"/></g><g transform="translate(330.096 243.812)"><path class="a" d="M387.714,327.308q2.808,1.325,1.326,3.634-4.79,6.932-7.43,9.244-6.605,5.288-17.5,5.284-14.035,0-24.023-10.978a40.145,40.145,0,0,1,0-53q9.988-10.979,24.023-10.98a26.33,26.33,0,0,1,15.19,4.623,20.263,20.263,0,0,1,7.265,7.43q1.32,2.477-1.326,3.8c-.444.221-.94.5-1.491.825q-.666,0-1.658-1.486-7.789-10.9-17.9-10.9-9.612,0-16.407,9.659t-6.793,23.526q0,13.708,6.793,23.365t16.4,9.657q8.279,0,13.585-4.456,2.816-2.313,6.294-8.255A2.5,2.5,0,0,1,387.714,327.308Z" transform="translate(-330.096 -226.428)"/><path class="a" d="M386.993,279.737v61.09a2.481,2.481,0,0,1-2.807,2.807H378.9a2.48,2.48,0,0,1-2.807-2.807V274.619a2.481,2.481,0,0,1,2.807-2.807h22.125a25.607,25.607,0,0,1,16.841,6.026,18.676,18.676,0,0,1,7.265,14.942q0,6.439-6.136,11.391a21.237,21.237,0,0,1-11.444,4.79q-2.813.168-1.326,2.364l19.557,30a2.793,2.793,0,0,1,.5,1.319c0,.662-.718.989-2.146.989H417.7q-2.643,0-3.632-1.488Q403.008,325.8,391.781,308.3a4.361,4.361,0,0,1-.826-1.981q0-.988,3.3-.826,19.647.83,19.648-14.53a13.792,13.792,0,0,0-4.54-10.4,15.206,15.206,0,0,0-10.815-4.293h-8.09Q386.993,276.27,386.993,279.737Z" transform="translate(-300.146 -225.581)"/><path class="a" d="M454.233,324.607H431.09a3.5,3.5,0,0,0-3.637,2.805q-2.013,6.434-4.361,13.519-.978,3.158-3.1,3.159-3.44,0-2.282-3.632l19.483-62.907q1.981-6.439,7.76-6.439,5.28,0,6.935,4.458,8.086,22.456,23.607,64.393a3.63,3.63,0,0,1,0,2.64,2.177,2.177,0,0,1-2.325,1.488h-5.31a4.4,4.4,0,0,1-4.481-3.114L458.7,327.233Q457.869,324.61,454.233,324.607Zm-22.092-4.953h21.671q2.15,0,1.324-2.127-3.8-11.063-10.722-29.725-.986-2.987-2.463-2.987t-2.3,2.637q-2.833,8.908-8.833,28.537Q429.663,319.656,432.142,319.654Z" transform="translate(-273.241 -226.037)"/><path class="a" d="M472.692,359.058a2.481,2.481,0,0,1-2.807,2.807H464.6a2.479,2.479,0,0,1-2.807-2.807V269.9q0-26.086,19.483-26.087,5.449,0,7.1.826,2.477.991,2.477,1.981a3.816,3.816,0,0,1-.33,1.321q-.5,1.322-3.3.66a19.749,19.749,0,0,0-5.614-.5q-3.8,0-6.357,3.8a17.083,17.083,0,0,0-2.559,9.741v24.931q0,3.467,3.1,3.467,4.24,0,6.2.165h2.448q2.608,0,2.61,2.726,0,2.558-2.939,2.558h-6.854q-4.575,0-4.572,4.458Z" transform="translate(-244.348 -243.812)"/><path class="a" d="M502.1,279.572a2.189,2.189,0,0,0-2.477-2.477h-14.53q-3.8,0-3.8-1.981v-1.321q0-1.981,4.788-1.981h40.947q4.621,0,4.623,1.981v1.321q0,1.981-3.632,1.981H517.453a20.325,20.325,0,0,0-3.632.165A2.07,2.07,0,0,0,512,279.572v61.419A2.48,2.48,0,0,1,509.2,343.8H504.9a2.479,2.479,0,0,1-2.807-2.807Z" transform="translate(-231.652 -225.581)"/></g></g></svg>