<svg xmlns="http://www.w3.org/2000/svg" width="17.231" height="70" viewBox="0 0 17.231 70"><defs><style>.a{fill:#fff;}</style></defs><path class="a" d="M468.256,312.148a1.471,1.471,0,0,1-1.664,1.664h-3.133a1.47,1.47,0,0,1-1.664-1.664V259.281q0-15.468,11.552-15.469a11.355,11.355,0,0,1,4.21.49q1.469.587,1.469,1.175a2.263,2.263,0,0,1-.2.783q-.294.784-1.958.392a11.71,11.71,0,0,0-3.329-.294,4.447,4.447,0,0,0-3.769,2.252,10.13,10.13,0,0,0-1.517,5.776v14.783q0,2.056,1.839,2.056,2.514,0,3.679.1h1.452q1.546,0,1.548,1.617,0,1.517-1.743,1.516h-4.064q-2.712,0-2.711,2.643Z" transform="translate(-461.795 -243.812)"/></svg>